<?xml version="1.0" encoding="utf-8"?>
<!-- Svg Vector Icons : http://www.onlinewebfonts.com/icon -->
<!DOCTYPE svg PUBLIC "-//W3C//DTD SVG 1.1//EN" "http://www.w3.org/Graphics/SVG/1.1/DTD/svg11.dtd">
<svg version="1.1" xmlns="http://www.w3.org/2000/svg" xmlns:xlink="http://www.w3.org/1999/xlink" x="0px" y="0px" viewBox="0 0 1000 1000" enable-background="new 0 0 1000 1000" xml:space="preserve">
<metadata> Svg Vector Icons : http://www.onlinewebfonts.com/icon </metadata>
<g><path d="M990,271.4c0,16.6-5.7,31-17,43.1L428.5,859c-12.1,11.3-26.5,17-43.1,17s-31-5.7-43.1-17L27,543.7c-11.3-12.1-17-26.5-17-43.1c0-16.6,5.7-31,17-43.1l86.2-86.2c12.1-12.1,26.5-18.1,43.1-18.1c16.6,0,31,6,43.1,18.1l186,187.2l415.1-416.3C812.7,130,827,124,843.7,124c16.6,0,31,6,43.1,18.1l86.2,86.2C984.3,240.4,990,254.8,990,271.4z"/></g>
</svg>